<svg width="48" height="48" viewBox="0 0 48 48" fill="none" xmlns="http://www.w3.org/2000/svg">
<g id="Dribbble">
<g id="Dribbble_2">
<rect id="Rectangle" width="48" height="48" rx="24" fill="#EA4C89"/>
<path id="Vector" d="M24 39.9812C15.175 39.9812 8 32.8187 8 24.0062C8 15.1812 15.175 8.01874 24 8.01874C32.825 8.01874 40 15.1812 40 23.9937C40 32.8062 32.825 39.9812 24 39.9812ZM37.4875 26.1812C37.025 26.0312 33.2625 24.9187 28.975 25.5937C30.7625 30.4937 31.4875 34.4937 31.625 35.3187C34.7 33.2562 36.8875 29.9812 37.4875 26.1812ZM29.3375 36.5812C29.1375 35.3812 28.3375 31.2062 26.425 26.2312C26.4 26.2437 26.3625 26.2562 26.3375 26.2562C18.625 28.9437 15.8625 34.2812 15.6125 34.7812C17.925 36.5812 20.8375 37.6562 24 37.6562C25.8875 37.6687 27.7 37.2812 29.3375 36.5812ZM13.85 33.1437C14.1625 32.6187 17.9125 26.4187 24.9625 24.1312C25.1375 24.0687 25.325 24.0187 25.5 23.9687C25.1625 23.1937 24.7875 22.4187 24.3875 21.6562C17.5625 23.6937 10.9375 23.6062 10.3375 23.5937C10.3375 23.7312 10.325 23.8687 10.325 24.0062C10.3375 27.5187 11.6625 30.7187 13.85 33.1437ZM10.625 21.2187C11.2375 21.2312 16.8625 21.2562 23.2625 19.5562C21 15.5312 18.55 12.1562 18.2 11.6687C14.3625 13.4687 11.5125 16.9937 10.625 21.2187ZM20.8 10.7437C21.175 11.2437 23.6625 14.6187 25.9 18.7312C30.7625 16.9062 32.8125 14.1562 33.0625 13.8062C30.65 11.6687 27.475 10.3687 24 10.3687C22.9 10.3687 21.825 10.5062 20.8 10.7437ZM34.575 15.3812C34.2875 15.7687 32 18.7062 26.95 20.7687C27.2625 21.4187 27.575 22.0812 27.8625 22.7437C27.9625 22.9812 28.0625 23.2187 28.1625 23.4437C32.7125 22.8687 37.225 23.7937 37.675 23.8812C37.6375 20.6687 36.4875 17.7062 34.575 15.3812Z" fill="white"/>
</g>
</g>
</svg>
